<svg width="32" height="32" xmlns="http://www.w3.org/2000/svg"><g fill="#000" fill-rule="nonzero"><path d="M16.516.008c8.43.286 15.226 7.078 15.476 15.462.138 4.475-1.528 8.681-4.689 11.842C24.27 30.347 20.271 32 15.998 32c-.171 0-.34-.002-.512-.007C7.06 31.708.261 24.916.01 16.531c-.154-4.454 1.496-8.65 4.645-11.813 3.164-3.175 7.367-4.85 11.86-4.71zm-.031 1C12.272.876 8.335 2.44 5.364 5.424 2.41 8.39.865 12.319 1.009 16.5c.235 7.857 6.61 14.225 14.505 14.493.155.004.313.006.484.006 4.012 0 7.754-1.55 10.598-4.395 2.966-2.966 4.526-6.906 4.397-11.105-.231-7.75-6.434-14.05-14.187-14.478l-.321-.014z"/><path d="M21.146 6.703c.035 0 .035.035.07.035.493 2.357 1.76 5.383 4.962 6.615.457 1.9.422 4.01-.247 6.157-.88 2.64-3.764 5.56-6.403 6.44C13.51 27.99 7.88 24.787 5.946 19.72c7.284-1.653 6.72-10.168 6.72-10.168l.09.337c.187.773.57 2.758.157 4.765 6.087-.106 7.776-4.961 8.233-7.952zm.139 3.353l-.075.186c-1.366 3.234-4.01 5.338-8.28 5.412a1 1 0 01-.34-.052l-.089-.037-.076.163c-1.03 2.139-2.667 3.744-4.985 4.595l-.115.039.118.223c2.164 3.96 6.804 5.96 11.493 4.505l.276-.09c2.329-.776 4.987-3.454 5.765-5.787.515-1.654.633-3.322.374-4.903l-.044-.241-.074-.033c-1.708-.807-2.96-2.104-3.826-3.742l-.122-.238z"/><path d="M16.678 21.938a.84.84 0 01.492.176c.549.42 1.186.69 1.857.625l.184-.027c.07 0 .14-.035.211-.035l.035.07-1.337.774c-.422.247-.844.458-1.337.528h-.035c-1.231.246-2.498-.105-3.483-.81l-.704-.492.035-.07c.07 0 .141.035.211.035.74.106 1.443-.14 2.041-.598a.84.84 0 01.493-.176c.281 0 .492.14.668.317.141-.211.387-.317.669-.317zM22.8 14.795l.091.175c.233.424.938 1.45 2.759 1.48l.035.034c-.4.2-1.882.147-3.085-.432l-.187-.096.061.23c.192.644.569 1.193 1.733 1.319v.035c-.433.1-1.877-.242-2.955-1.056l-.176-.14c.14.774.493 1.583 1.407 1.9v.035c-.492 0-1.864-.704-2.709-1.865-.035.739.106 1.548.845 2.076v.035c-2.534-1.513-2.71-3.202-2.886-3.554l.211-.105c1.02 1.689 4.258 1.196 4.856-.07z"/></g></svg>
